<svg width="16" height="16" viewBox="0 0 16 16" fill="none" xmlns="http://www.w3.org/2000/svg">
  <!-- Book icon for wiki -->
  <path d="M2 2.5C2 2.22 2.22 2 2.5 2H6c1.1 0 2 .9 2 2v9.5a.5.5 0 01-.5.5.5.5 0 01-.5-.5C7 12.67 6.33 12 5.5 12H2.5a.5.5 0 01-.5-.5V2.5z" stroke="#C5C5C5" stroke-width="1.2" fill="none"/>
  <path d="M14 2.5c0-.28-.22-.5-.5-.5H10c-1.1 0-2 .9-2 2v9.5a.5.5 0 00.5.5.5.5 0 00.5-.5c0-.83.67-1.5 1.5-1.5h3a.5.5 0 00.5-.5V2.5z" stroke="#C5C5C5" stroke-width="1.2" fill="none"/>
</svg>
